<?xml version="1.0" encoding="UTF-8" standalone="no"?>
<!-- Created with Inkscape (http://www.inkscape.org/) -->

<svg
   xmlns:dc="http://purl.org/dc/elements/1.1/"
   xmlns:cc="http://creativecommons.org/ns#"
   xmlns:rdf="http://www.w3.org/1999/02/22-rdf-syntax-ns#"
   xmlns:svg="http://www.w3.org/2000/svg"
   xmlns="http://www.w3.org/2000/svg"
   xmlns:sodipodi="http://sodipodi.sourceforge.net/DTD/sodipodi-0.dtd"
   xmlns:inkscape="http://www.inkscape.org/namespaces/inkscape"
   width="210mm"
   height="297mm"
   viewBox="0 0 744.09448819 1052.3622047"
   id="svg2"
   version="1.1"
   inkscape:version="0.91 r13725"
   sodipodi:docname="icons.svg">
  <defs
     id="defs4">
    <marker
       inkscape:stockid="Arrow2Lend"
       orient="auto"
       refY="0.0"
       refX="0.0"
       id="marker5087"
       style="overflow:visible;"
       inkscape:isstock="true">
      <path
         id="path5089"
         style="fill-rule:evenodd;stroke-width:0.625;stroke-linejoin:round;stroke:#000000;stroke-opacity:1;fill:#000000;fill-opacity:1"
         d="M 8.7185878,4.0337352 L -2.2072895,0.016013256 L 8.7185884,-4.0017078 C 6.9730900,-1.6296469 6.9831476,1.6157441 8.7185878,4.0337352 z "
         transform="scale(1.1) rotate(180) translate(1,0)" />
    </marker>
    <marker
       inkscape:stockid="Arrow2Mend"
       orient="auto"
       refY="0.0"
       refX="0.0"
       id="marker5017"
       style="overflow:visible;"
       inkscape:isstock="true">
      <path
         id="path5019"
         style="fill-rule:evenodd;stroke-width:0.625;stroke-linejoin:round;stroke:#000000;stroke-opacity:1;fill:#000000;fill-opacity:1"
         d="M 8.7185878,4.0337352 L -2.2072895,0.016013256 L 8.7185884,-4.0017078 C 6.9730900,-1.6296469 6.9831476,1.6157441 8.7185878,4.0337352 z "
         transform="scale(0.6) rotate(180) translate(0,0)" />
    </marker>
    <marker
       inkscape:stockid="Arrow2Mend"
       orient="auto"
       refY="0.0"
       refX="0.0"
       id="Arrow2Mend"
       style="overflow:visible;"
       inkscape:isstock="true">
      <path
         id="path4304"
         style="fill-rule:evenodd;stroke-width:0.625;stroke-linejoin:round;stroke:#000000;stroke-opacity:1;fill:#000000;fill-opacity:1"
         d="M 8.7185878,4.0337352 L -2.2072895,0.016013256 L 8.7185884,-4.0017078 C 6.9730900,-1.6296469 6.9831476,1.6157441 8.7185878,4.0337352 z "
         transform="scale(0.6) rotate(180) translate(0,0)" />
    </marker>
    <marker
       inkscape:stockid="Arrow1Mend"
       orient="auto"
       refY="0.0"
       refX="0.0"
       id="Arrow1Mend"
       style="overflow:visible;"
       inkscape:isstock="true">
      <path
         id="path4286"
         d="M 0.0,0.0 L 5.0,-5.0 L -12.5,0.0 L 5.0,5.0 L 0.0,0.0 z "
         style="fill-rule:evenodd;stroke:#000000;stroke-width:1pt;stroke-opacity:1;fill:#000000;fill-opacity:1"
         transform="scale(0.4) rotate(180) translate(10,0)" />
    </marker>
    <marker
       inkscape:stockid="Arrow2Lend"
       orient="auto"
       refY="0.0"
       refX="0.0"
       id="Arrow2Lend"
       style="overflow:visible;"
       inkscape:isstock="true">
      <path
         id="path4298"
         style="fill-rule:evenodd;stroke-width:0.625;stroke-linejoin:round;stroke:#000000;stroke-opacity:1;fill:#000000;fill-opacity:1"
         d="M 8.7185878,4.0337352 L -2.2072895,0.016013256 L 8.7185884,-4.0017078 C 6.9730900,-1.6296469 6.9831476,1.6157441 8.7185878,4.0337352 z "
         transform="scale(1.1) rotate(180) translate(1,0)" />
    </marker>
    <marker
       inkscape:stockid="Arrow1Lend"
       orient="auto"
       refY="0.0"
       refX="0.0"
       id="Arrow1Lend"
       style="overflow:visible;"
       inkscape:isstock="true">
      <path
         id="path4280"
         d="M 0.0,0.0 L 5.0,-5.0 L -12.5,0.0 L 5.0,5.0 L 0.0,0.0 z "
         style="fill-rule:evenodd;stroke:#000000;stroke-width:1pt;stroke-opacity:1;fill:#000000;fill-opacity:1"
         transform="scale(0.8) rotate(180) translate(12.5,0)" />
    </marker>
  </defs>
  <sodipodi:namedview
     id="base"
     pagecolor="#ffffff"
     bordercolor="#666666"
     borderopacity="1.0"
     inkscape:pageopacity="0.0"
     inkscape:pageshadow="2"
     inkscape:zoom="0.49497475"
     inkscape:cx="350.12255"
     inkscape:cy="566.32344"
     inkscape:document-units="px"
     inkscape:current-layer="layer1"
     showgrid="false"
     inkscape:snap-nodes="false"
     inkscape:snap-global="false"
     inkscape:window-width="1001"
     inkscape:window-height="738"
     inkscape:window-x="0"
     inkscape:window-y="1"
     inkscape:window-maximized="0" />
  <metadata
     id="metadata7">
    <rdf:RDF>
      <cc:Work
         rdf:about="">
        <dc:format>image/svg+xml</dc:format>
        <dc:type
           rdf:resource="http://purl.org/dc/dcmitype/StillImage" />
        <dc:title></dc:title>
      </cc:Work>
    </rdf:RDF>
  </metadata>
  <g
     inkscape:label="Layer 1"
     inkscape:groupmode="layer"
     id="layer1">
    <g
       id="g5259"
       inkscape:export-xdpi="281.42999"
       inkscape:export-ydpi="281.42999">
      <g
         transform="translate(21.518915,51.923014)"
         id="g4249">
        <g
           transform="translate(18.182746,15.152288)"
           id="midi">
          <circle
             style="fill:#ffffff;stroke:#000000;stroke-width:2;stroke-linejoin:round"
             class="st1"
             cx="88.5"
             cy="88.5"
             r="87.5"
             id="circle4217" />
          <path
             style="fill:none;stroke:#000000;stroke-width:2"
             inkscape:connector-curvature="0"
             class="st0"
             d="M 88.5,9 C 44.7,9 9,44.7 9,88.5 c 0,38.4 27.4,70.5 63.6,77.9 0.8,-8.1 7.6,-14.4 15.9,-14.4 8.3,0 15.1,6.3 15.9,14.4 C 140.6,159 168,126.9 168,88.5 168,44.7 132.3,9 88.5,9 Z"
             id="path4219" />
          <circle
             style="fill:none;stroke:#000000;stroke-width:2"
             class="st0"
             cx="42.400002"
             cy="88.599998"
             r="11"
             id="circle4221" />
          <circle
             style="fill:none;stroke:#000000;stroke-width:2"
             class="st0"
             cx="55.900002"
             cy="56"
             r="11"
             id="circle4223" />
          <circle
             style="fill:none;stroke:#000000;stroke-width:2"
             class="st0"
             cx="88.400002"
             cy="42.400002"
             r="11"
             id="circle4225" />
          <circle
             style="fill:none;stroke:#000000;stroke-width:2"
             class="st0"
             cx="121"
             cy="55.900002"
             r="11"
             id="circle4227" />
          <circle
             style="fill:none;stroke:#000000;stroke-width:2"
             class="st0"
             cx="134.60001"
             cy="88.400002"
             r="11"
             id="circle4229" />
        </g>
        <g
           id="text" />
      </g>
      <path
         inkscape:connector-curvature="0"
         id="path4271"
         d="m 222.48871,162.36221 56.39882,0"
         style="fill:none;fill-rule:evenodd;stroke:#000000;stroke-width:4.64803982;stroke-linecap:butt;stroke-linejoin:miter;stroke-miterlimit:4;stroke-dasharray:none;stroke-opacity:1;marker-end:url(#marker5017)" />
      <g
         id="g4861"
         transform="translate(273.51892,51.923014)">
        <g
           id="g4863"
           transform="translate(18.182746,15.152288)">
          <circle
             id="circle4865"
             r="87.5"
             cy="88.5"
             cx="88.5"
             class="st1"
             style="fill:#ffffff;stroke:#000000;stroke-width:2;stroke-linejoin:round" />
          <path
             id="path4867"
             d="M 88.5,9 C 44.7,9 9,44.7 9,88.5 c 0,38.4 27.4,70.5 63.6,77.9 0.8,-8.1 7.6,-14.4 15.9,-14.4 8.3,0 15.1,6.3 15.9,14.4 C 140.6,159 168,126.9 168,88.5 168,44.7 132.3,9 88.5,9 Z"
             class="st0"
             inkscape:connector-curvature="0"
             style="fill:none;stroke:#000000;stroke-width:2" />
          <circle
             id="circle4869"
             r="11"
             cy="88.599998"
             cx="42.400002"
             class="st0"
             style="fill:none;stroke:#000000;stroke-width:2" />
          <circle
             id="circle4871"
             r="11"
             cy="56"
             cx="55.900002"
             class="st0"
             style="fill:none;stroke:#000000;stroke-width:2" />
          <circle
             id="circle4873"
             r="11"
             cy="42.400002"
             cx="88.400002"
             class="st0"
             style="fill:none;stroke:#000000;stroke-width:2" />
          <circle
             id="circle4875"
             r="11"
             cy="55.900002"
             cx="121"
             class="st0"
             style="fill:none;stroke:#000000;stroke-width:2" />
          <circle
             id="circle4877"
             r="11"
             cy="88.400002"
             cx="134.60001"
             class="st0"
             style="fill:none;stroke:#000000;stroke-width:2" />
        </g>
        <g
           id="g4879" />
      </g>
    </g>
    <g
       id="g5413"
       inkscape:export-xdpi="281.42999"
       inkscape:export-ydpi="281.42999">
      <g
         id="g5284"
         transform="translate(21.518915,331.92301)">
        <g
           id="g5286"
           transform="translate(18.182746,15.152288)">
          <circle
             id="circle5288"
             r="87.5"
             cy="88.5"
             cx="88.5"
             class="st1"
             style="fill:#ffffff;stroke:#000000;stroke-width:2;stroke-linejoin:round" />
          <path
             id="path5290"
             d="M 88.5,9 C 44.7,9 9,44.7 9,88.5 c 0,38.4 27.4,70.5 63.6,77.9 0.8,-8.1 7.6,-14.4 15.9,-14.4 8.3,0 15.1,6.3 15.9,14.4 C 140.6,159 168,126.9 168,88.5 168,44.7 132.3,9 88.5,9 Z"
             class="st0"
             inkscape:connector-curvature="0"
             style="fill:none;stroke:#000000;stroke-width:2" />
          <circle
             id="circle5292"
             r="11"
             cy="88.599998"
             cx="42.400002"
             class="st0"
             style="fill:none;stroke:#000000;stroke-width:2" />
          <circle
             id="circle5294"
             r="11"
             cy="56"
             cx="55.900002"
             class="st0"
             style="fill:none;stroke:#000000;stroke-width:2" />
          <circle
             id="circle5296"
             r="11"
             cy="42.400002"
             cx="88.400002"
             class="st0"
             style="fill:none;stroke:#000000;stroke-width:2" />
          <circle
             id="circle5298"
             r="11"
             cy="55.900002"
             cx="121"
             class="st0"
             style="fill:none;stroke:#000000;stroke-width:2" />
          <circle
             id="circle5300"
             r="11"
             cy="88.400002"
             cx="134.60001"
             class="st0"
             style="fill:none;stroke:#000000;stroke-width:2" />
        </g>
        <g
           id="g5302" />
      </g>
      <path
         style="fill:none;fill-rule:evenodd;stroke:#000000;stroke-width:4.64803982;stroke-linecap:butt;stroke-linejoin:miter;stroke-miterlimit:4;stroke-dasharray:none;stroke-opacity:1;marker-end:url(#marker5017)"
         d="m 222.48871,442.36221 56.39882,0"
         id="path5304"
         inkscape:connector-curvature="0" />
      <g
         transform="translate(273.51892,331.92301)"
         id="g5306">
        <g
           transform="translate(18.182746,15.152288)"
           id="g5308">
          <circle
             style="fill:#ffffff;stroke:#000000;stroke-width:2;stroke-linejoin:round"
             class="st1"
             cx="88.5"
             cy="88.5"
             r="87.5"
             id="circle5310" />
          <path
             style="fill:none;stroke:#000000;stroke-width:2"
             inkscape:connector-curvature="0"
             class="st0"
             d="M 88.5,9 C 44.7,9 9,44.7 9,88.5 c 0,38.4 27.4,70.5 63.6,77.9 0.8,-8.1 7.6,-14.4 15.9,-14.4 8.3,0 15.1,6.3 15.9,14.4 C 140.6,159 168,126.9 168,88.5 168,44.7 132.3,9 88.5,9 Z"
             id="path5312" />
          <circle
             style="fill:none;stroke:#000000;stroke-width:2"
             class="st0"
             cx="42.400002"
             cy="88.599998"
             r="11"
             id="circle5314" />
          <circle
             style="fill:none;stroke:#000000;stroke-width:2"
             class="st0"
             cx="55.900002"
             cy="56"
             r="11"
             id="circle5316" />
          <circle
             style="fill:none;stroke:#000000;stroke-width:2"
             class="st0"
             cx="88.400002"
             cy="42.400002"
             r="11"
             id="circle5318" />
          <circle
             style="fill:none;stroke:#000000;stroke-width:2"
             class="st0"
             cx="121"
             cy="55.900002"
             r="11"
             id="circle5320" />
          <circle
             style="fill:none;stroke:#000000;stroke-width:2"
             class="st0"
             cx="134.60001"
             cy="88.400002"
             r="11"
             id="circle5322" />
        </g>
        <g
           id="g5324" />
      </g>
      <path
         sodipodi:nodetypes="sscssssssscscccscccsc"
         inkscape:connector-curvature="0"
         id="path5326"
         d="m 353.6181,456.17706 c -9.63201,1.11912 -24.42997,2.97561 -30.10307,10.83971 -2.05171,2.84411 -1.89743,35.24329 -1.89743,35.24329 0,0 23.2675,16.34259 32.11826,20.19904 7.94137,3.46021 16.64069,5.92727 25.30317,5.92419 6.28102,-0.002 12.48445,-2.04617 18.34387,-4.30857 9.6711,-3.73414 31.01541,-12.27489 33.76572,-18.78995 1.69813,-4.02259 2.54504,-36.67937 -0.63219,-40.79338 -4.68959,-6.07227 1.66173,-1.60493 -21.38455,-7.27022 -19.85924,-4.88185 -34.76839,-3.45445 -55.51378,-1.04411 z m 26.05311,8.95538 c 0,0 9.093,5.86527 11.87632,6.99047 8.37733,3.38666 22.28183,3.24304 22.28183,3.24304 l 1.26524,23.93247 -22.13962,6.46322 c 0,0 -3.46319,-8.9327 -14.54877,-9.15586 -5.65238,-0.11379 -13.91656,9.69489 -13.91656,9.69489 l -24.03743,-6.46343 0.63292,-23.93226 c 0,0 15.05011,0.12131 24.92404,-3.60609 2.72202,-1.02756 13.66203,-7.16645 13.66203,-7.16645 z"
         style="fill:#000000;fill-opacity:1;fill-rule:evenodd;stroke:#000000;stroke-width:0.40858886px;stroke-linecap:butt;stroke-linejoin:miter;stroke-opacity:1" />
    </g>
  </g>
  <style
     id="style4214"
     type="text/css">
	.st0{fill:none;stroke:#000;stroke-width:2;}
	.st1{fill:#fff;stroke:#000;stroke-width:2;stroke-linejoin:round;}
	.st2{font-family:Liberation Sans,Arial;}
	.st3{font-size:17px;}
</style>
</svg>
